<svg xmlns="http://www.w3.org/2000/svg" width="960" height="580" viewBox="0 0 960 580" role="img" aria-labelledby="title desc">
<title id="title">Downloads by Platform</title>
<desc id="desc">JRickey/BattleShip has 47,193 release asset downloads in the current GitHub API data.</desc>
<style>
svg { font-family: -apple-system, BlinkMacSystemFont, 'Segoe UI', sans-serif; }
.surface { fill: #0d1117; stroke: #30363d; }
.plot-bg { fill: #161b22; }
.title { fill: #f0f6fc; font-size: 24px; font-weight: 700; }
.subtitle { fill: #8b949e; font-size: 14px; }
.axis { fill: #8b949e; font-size: 12px; }
.grid { stroke: #30363d; stroke-width: 1; }
.legend { fill: #f0f6fc; font-size: 13px; }
.stat { fill: #f0f6fc; font-size: 22px; font-weight: 700; }
.stat-label { fill: #8b949e; font-size: 12px; }
</style>
<rect class="surface" x="0.5" y="0.5" width="959" height="579" rx="10"/>
<text class="title" x="36" y="40">Downloads by Platform</text>
<text class="subtitle" x="36" y="64">Categorical x axis by release tag; US is lighter, JP is darker</text>
<text class="stat" x="902" y="39" text-anchor="end">47,193</text>
<text class="stat-label" x="902" y="61" text-anchor="end">downloads across 33 releases</text>
<rect class="plot-bg" x="72" y="112" width="840" height="250" rx="6"/>
<line class="grid" x1="72" y1="362.00" x2="912" y2="362.00"/>
<text class="axis" x="60" y="366.00" text-anchor="end">0</text>
<line class="grid" x1="72" y1="299.50" x2="912" y2="299.50"/>
<text class="axis" x="60" y="303.50" text-anchor="end">12.5k</text>
<line class="grid" x1="72" y1="237.00" x2="912" y2="237.00"/>
<text class="axis" x="60" y="241.00" text-anchor="end">25k</text>
<line class="grid" x1="72" y1="174.50" x2="912" y2="174.50"/>
<text class="axis" x="60" y="178.50" text-anchor="end">37.5k</text>
<line class="grid" x1="72" y1="112.00" x2="912" y2="112.00"/>
<text class="axis" x="60" y="116.00" text-anchor="end">50k</text>
<text class="axis" x="72.00" y="404" text-anchor="end" transform="rotate(-35 72.00 404)">v0.3.2</text>
<text class="axis" x="177.00" y="404" text-anchor="end" transform="rotate(-35 177.00 404)">v0.5.1-beta</text>
<text class="axis" x="282.00" y="404" text-anchor="end" transform="rotate(-35 282.00 404)">v0.7.2-beta-hotfix</text>
<text class="axis" x="387.00" y="404" text-anchor="end" transform="rotate(-35 387.00 404)">v0.7.4-beta</text>
<text class="axis" x="492.00" y="404" text-anchor="end" transform="rotate(-35 492.00 404)">v0.8.1-beta</text>
<text class="axis" x="597.00" y="404" text-anchor="end" transform="rotate(-35 597.00 404)">v0.9.1-beta</text>
<text class="axis" x="702.00" y="404" text-anchor="end" transform="rotate(-35 702.00 404)">v1.1</text>
<text class="axis" x="807.00" y="404" text-anchor="end" transform="rotate(-35 807.00 404)">v1.4</text>
<text class="axis" x="912.00" y="404" text-anchor="end" transform="rotate(-35 912.00 404)">v1.6</text>
<path d="M 72.00 361.77 L 98.25 361.68 L 124.50 361.29 L 150.75 361.17 L 177.00 360.86 L 203.25 360.79 L 229.50 360.65 L 255.75 360.57 L 282.00 360.51 L 308.25 360.44 L 334.50 360.35 L 360.75 360.21 L 387.00 360.15 L 413.25 360.06 L 439.50 360.01 L 465.75 359.81 L 492.00 359.72 L 518.25 359.64 L 544.50 359.29 L 570.75 358.95 L 597.00 358.82 L 623.25 358.73 L 649.50 358.63 L 675.75 358.14 L 702.00 357.40 L 728.25 357.27 L 754.50 356.77 L 780.75 356.27 L 807.00 355.93 L 833.25 355.08 L 859.50 354.89 L 885.75 354.46 L 912.00 353.85 L 912.00 362.00 L 885.75 362.00 L 859.50 362.00 L 833.25 362.00 L 807.00 362.00 L 780.75 362.00 L 754.50 362.00 L 728.25 362.00 L 702.00 362.00 L 675.75 362.00 L 649.50 362.00 L 623.25 362.00 L 597.00 362.00 L 570.75 362.00 L 544.50 362.00 L 518.25 362.00 L 492.00 362.00 L 465.75 362.00 L 439.50 362.00 L 413.25 362.00 L 387.00 362.00 L 360.75 362.00 L 334.50 362.00 L 308.25 362.00 L 282.00 362.00 L 255.75 362.00 L 229.50 362.00 L 203.25 362.00 L 177.00 362.00 L 150.75 362.00 L 124.50 362.00 L 98.25 362.00 L 72.00 362.00 Z" fill="#79c0ff" fill-opacity="0.78"/>
<path d="M 72.00 361.77 L 98.25 361.68 L 124.50 361.29 L 150.75 361.17 L 177.00 360.86 L 203.25 360.79 L 229.50 360.65 L 255.75 360.57 L 282.00 360.51 L 308.25 360.44 L 334.50 360.35 L 360.75 360.21 L 387.00 360.15 L 413.25 360.06 L 439.50 360.01 L 465.75 359.81 L 492.00 359.72 L 518.25 359.64 L 544.50 359.29 L 570.75 358.95 L 597.00 358.82 L 623.25 358.73 L 649.50 358.63 L 675.75 358.14 L 702.00 357.40 L 728.25 357.27 L 754.50 356.77 L 780.75 356.27 L 807.00 355.93 L 833.25 355.08 L 859.50 354.89 L 885.75 354.46 L 912.00 353.85" fill="none" stroke="#79c0ff" stroke-width="1.5" stroke-opacity="0.95" stroke-linejoin="round" stroke-linecap="round"/>
<path d="M 72.00 361.77 L 98.25 361.68 L 124.50 361.29 L 150.75 361.17 L 177.00 360.86 L 203.25 360.79 L 229.50 360.65 L 255.75 360.57 L 282.00 360.51 L 308.25 360.44 L 334.50 360.35 L 360.75 360.21 L 387.00 360.15 L 413.25 360.06 L 439.50 360.01 L 465.75 359.81 L 492.00 359.72 L 518.25 359.64 L 544.50 359.29 L 570.75 358.95 L 597.00 358.82 L 623.25 358.73 L 649.50 358.55 L 675.75 357.65 L 702.00 356.48 L 728.25 356.26 L 754.50 355.51 L 780.75 354.59 L 807.00 353.89 L 833.25 352.52 L 859.50 352.22 L 885.75 351.57 L 912.00 350.70 L 912.00 353.85 L 885.75 354.46 L 859.50 354.89 L 833.25 355.08 L 807.00 355.93 L 780.75 356.27 L 754.50 356.77 L 728.25 357.27 L 702.00 357.40 L 675.75 358.14 L 649.50 358.63 L 623.25 358.73 L 597.00 358.82 L 570.75 358.95 L 544.50 359.29 L 518.25 359.64 L 492.00 359.72 L 465.75 359.81 L 439.50 360.01 L 413.25 360.06 L 387.00 360.15 L 360.75 360.21 L 334.50 360.35 L 308.25 360.44 L 282.00 360.51 L 255.75 360.57 L 229.50 360.65 L 203.25 360.79 L 177.00 360.86 L 150.75 361.17 L 124.50 361.29 L 98.25 361.68 L 72.00 361.77 Z" fill="#2f81f7" fill-opacity="0.78"/>
<path d="M 72.00 361.77 L 98.25 361.68 L 124.50 361.29 L 150.75 361.17 L 177.00 360.86 L 203.25 360.79 L 229.50 360.65 L 255.75 360.57 L 282.00 360.51 L 308.25 360.44 L 334.50 360.35 L 360.75 360.21 L 387.00 360.15 L 413.25 360.06 L 439.50 360.01 L 465.75 359.81 L 492.00 359.72 L 518.25 359.64 L 544.50 359.29 L 570.75 358.95 L 597.00 358.82 L 623.25 358.73 L 649.50 358.55 L 675.75 357.65 L 702.00 356.48 L 728.25 356.26 L 754.50 355.51 L 780.75 354.59 L 807.00 353.89 L 833.25 352.52 L 859.50 352.22 L 885.75 351.57 L 912.00 350.70" fill="none" stroke="#2f81f7" stroke-width="1.5" stroke-opacity="0.95" stroke-linejoin="round" stroke-linecap="round"/>
<path d="M 72.00 358.11 L 98.25 357.77 L 124.50 353.15 L 150.75 352.18 L 177.00 350.19 L 203.25 349.87 L 229.50 348.65 L 255.75 347.99 L 282.00 347.58 L 308.25 347.20 L 334.50 346.57 L 360.75 345.50 L 387.00 345.27 L 413.25 344.59 L 439.50 344.38 L 465.75 341.17 L 492.00 340.51 L 518.25 339.89 L 544.50 335.20 L 570.75 329.37 L 597.00 328.07 L 623.25 327.29 L 649.50 326.47 L 675.75 320.92 L 702.00 314.20 L 728.25 313.17 L 754.50 305.27 L 780.75 301.12 L 807.00 298.88 L 833.25 277.19 L 859.50 272.29 L 885.75 260.56 L 912.00 245.00 L 912.00 350.70 L 885.75 351.57 L 859.50 352.22 L 833.25 352.52 L 807.00 353.89 L 780.75 354.59 L 754.50 355.51 L 728.25 356.26 L 702.00 356.48 L 675.75 357.65 L 649.50 358.55 L 623.25 358.73 L 597.00 358.82 L 570.75 358.95 L 544.50 359.29 L 518.25 359.64 L 492.00 359.72 L 465.75 359.81 L 439.50 360.01 L 413.25 360.06 L 387.00 360.15 L 360.75 360.21 L 334.50 360.35 L 308.25 360.44 L 282.00 360.51 L 255.75 360.57 L 229.50 360.65 L 203.25 360.79 L 177.00 360.86 L 150.75 361.17 L 124.50 361.29 L 98.25 361.68 L 72.00 361.77 Z" fill="#7ee787" fill-opacity="0.78"/>
<path d="M 72.00 358.11 L 98.25 357.77 L 124.50 353.15 L 150.75 352.18 L 177.00 350.19 L 203.25 349.87 L 229.50 348.65 L 255.75 347.99 L 282.00 347.58 L 308.25 347.20 L 334.50 346.57 L 360.75 345.50 L 387.00 345.27 L 413.25 344.59 L 439.50 344.38 L 465.75 341.17 L 492.00 340.51 L 518.25 339.89 L 544.50 335.20 L 570.75 329.37 L 597.00 328.07 L 623.25 327.29 L 649.50 326.47 L 675.75 320.92 L 702.00 314.20 L 728.25 313.17 L 754.50 305.27 L 780.75 301.12 L 807.00 298.88 L 833.25 277.19 L 859.50 272.29 L 885.75 260.56 L 912.00 245.00" fill="none" stroke="#7ee787" stroke-width="1.5" stroke-opacity="0.95" stroke-linejoin="round" stroke-linecap="round"/>
<path d="M 72.00 358.11 L 98.25 357.77 L 124.50 353.15 L 150.75 352.18 L 177.00 350.19 L 203.25 349.87 L 229.50 348.65 L 255.75 347.99 L 282.00 347.58 L 308.25 347.20 L 334.50 346.57 L 360.75 345.50 L 387.00 345.27 L 413.25 344.59 L 439.50 344.38 L 465.75 341.17 L 492.00 340.51 L 518.25 339.89 L 544.50 335.20 L 570.75 329.37 L 597.00 328.07 L 623.25 327.29 L 649.50 326.18 L 675.75 317.22 L 702.00 309.08 L 728.25 307.78 L 754.50 298.41 L 780.75 293.46 L 807.00 290.67 L 833.25 264.93 L 859.50 259.09 L 885.75 245.07 L 912.00 226.47 L 912.00 245.00 L 885.75 260.56 L 859.50 272.29 L 833.25 277.19 L 807.00 298.88 L 780.75 301.12 L 754.50 305.27 L 728.25 313.17 L 702.00 314.20 L 675.75 320.92 L 649.50 326.47 L 623.25 327.29 L 597.00 328.07 L 570.75 329.37 L 544.50 335.20 L 518.25 339.89 L 492.00 340.51 L 465.75 341.17 L 439.50 344.38 L 413.25 344.59 L 387.00 345.27 L 360.75 345.50 L 334.50 346.57 L 308.25 347.20 L 282.00 347.58 L 255.75 347.99 L 229.50 348.65 L 203.25 349.87 L 177.00 350.19 L 150.75 352.18 L 124.50 353.15 L 98.25 357.77 L 72.00 358.11 Z" fill="#3fb950" fill-opacity="0.78"/>
<path d="M 72.00 358.11 L 98.25 357.77 L 124.50 353.15 L 150.75 352.18 L 177.00 350.19 L 203.25 349.87 L 229.50 348.65 L 255.75 347.99 L 282.00 347.58 L 308.25 347.20 L 334.50 346.57 L 360.75 345.50 L 387.00 345.27 L 413.25 344.59 L 439.50 344.38 L 465.75 341.17 L 492.00 340.51 L 518.25 339.89 L 544.50 335.20 L 570.75 329.37 L 597.00 328.07 L 623.25 327.29 L 649.50 326.18 L 675.75 317.22 L 702.00 309.08 L 728.25 307.78 L 754.50 298.41 L 780.75 293.46 L 807.00 290.67 L 833.25 264.93 L 859.50 259.09 L 885.75 245.07 L 912.00 226.47" fill="none" stroke="#3fb950" stroke-width="1.5" stroke-opacity="0.95" stroke-linejoin="round" stroke-linecap="round"/>
<path d="M 72.00 357.26 L 98.25 356.83 L 124.50 351.15 L 150.75 349.92 L 177.00 347.44 L 203.25 347.00 L 229.50 345.44 L 255.75 344.58 L 282.00 344.07 L 308.25 343.56 L 334.50 342.75 L 360.75 341.34 L 387.00 341.04 L 413.25 340.13 L 439.50 339.84 L 465.75 335.81 L 492.00 334.93 L 518.25 334.10 L 544.50 328.20 L 570.75 320.81 L 597.00 319.12 L 623.25 318.10 L 649.50 316.80 L 675.75 306.65 L 702.00 296.89 L 728.25 295.35 L 754.50 283.98 L 780.75 277.76 L 807.00 274.49 L 833.25 245.38 L 859.50 238.43 L 885.75 221.27 L 912.00 198.82 L 912.00 226.47 L 885.75 245.07 L 859.50 259.09 L 833.25 264.93 L 807.00 290.67 L 780.75 293.46 L 754.50 298.41 L 728.25 307.78 L 702.00 309.08 L 675.75 317.22 L 649.50 326.18 L 623.25 327.29 L 597.00 328.07 L 570.75 329.37 L 544.50 335.20 L 518.25 339.89 L 492.00 340.51 L 465.75 341.17 L 439.50 344.38 L 413.25 344.59 L 387.00 345.27 L 360.75 345.50 L 334.50 346.57 L 308.25 347.20 L 282.00 347.58 L 255.75 347.99 L 229.50 348.65 L 203.25 349.87 L 177.00 350.19 L 150.75 352.18 L 124.50 353.15 L 98.25 357.77 L 72.00 358.11 Z" fill="#c9d1d9" fill-opacity="0.78"/>
<path d="M 72.00 357.26 L 98.25 356.83 L 124.50 351.15 L 150.75 349.92 L 177.00 347.44 L 203.25 347.00 L 229.50 345.44 L 255.75 344.58 L 282.00 344.07 L 308.25 343.56 L 334.50 342.75 L 360.75 341.34 L 387.00 341.04 L 413.25 340.13 L 439.50 339.84 L 465.75 335.81 L 492.00 334.93 L 518.25 334.10 L 544.50 328.20 L 570.75 320.81 L 597.00 319.12 L 623.25 318.10 L 649.50 316.80 L 675.75 306.65 L 702.00 296.89 L 728.25 295.35 L 754.50 283.98 L 780.75 277.76 L 807.00 274.49 L 833.25 245.38 L 859.50 238.43 L 885.75 221.27 L 912.00 198.82" fill="none" stroke="#c9d1d9" stroke-width="1.5" stroke-opacity="0.95" stroke-linejoin="round" stroke-linecap="round"/>
<path d="M 72.00 357.26 L 98.25 356.83 L 124.50 351.15 L 150.75 349.92 L 177.00 347.44 L 203.25 347.00 L 229.50 345.44 L 255.75 344.58 L 282.00 344.07 L 308.25 343.56 L 334.50 342.75 L 360.75 341.34 L 387.00 341.04 L 413.25 340.13 L 439.50 339.84 L 465.75 335.81 L 492.00 334.93 L 518.25 334.10 L 544.50 328.20 L 570.75 320.81 L 597.00 319.12 L 623.25 318.10 L 649.50 316.68 L 675.75 305.55 L 702.00 294.94 L 728.25 293.28 L 754.50 281.42 L 780.75 274.67 L 807.00 271.02 L 833.25 240.72 L 859.50 233.41 L 885.75 215.45 L 912.00 192.01 L 912.00 198.82 L 885.75 221.27 L 859.50 238.43 L 833.25 245.38 L 807.00 274.49 L 780.75 277.76 L 754.50 283.98 L 728.25 295.35 L 702.00 296.89 L 675.75 306.65 L 649.50 316.80 L 623.25 318.10 L 597.00 319.12 L 570.75 320.81 L 544.50 328.20 L 518.25 334.10 L 492.00 334.93 L 465.75 335.81 L 439.50 339.84 L 413.25 340.13 L 387.00 341.04 L 360.75 341.34 L 334.50 342.75 L 308.25 343.56 L 282.00 344.07 L 255.75 344.58 L 229.50 345.44 L 203.25 347.00 L 177.00 347.44 L 150.75 349.92 L 124.50 351.15 L 98.25 356.83 L 72.00 357.26 Z" fill="#8b949e" fill-opacity="0.78"/>
<path d="M 72.00 357.26 L 98.25 356.83 L 124.50 351.15 L 150.75 349.92 L 177.00 347.44 L 203.25 347.00 L 229.50 345.44 L 255.75 344.58 L 282.00 344.07 L 308.25 343.56 L 334.50 342.75 L 360.75 341.34 L 387.00 341.04 L 413.25 340.13 L 439.50 339.84 L 465.75 335.81 L 492.00 334.93 L 518.25 334.10 L 544.50 328.20 L 570.75 320.81 L 597.00 319.12 L 623.25 318.10 L 649.50 316.68 L 675.75 305.55 L 702.00 294.94 L 728.25 293.28 L 754.50 281.42 L 780.75 274.67 L 807.00 271.02 L 833.25 240.72 L 859.50 233.41 L 885.75 215.45 L 912.00 192.01" fill="none" stroke="#8b949e" stroke-width="1.5" stroke-opacity="0.95" stroke-linejoin="round" stroke-linecap="round"/>
<path d="M 72.00 357.26 L 98.25 356.83 L 124.50 351.15 L 150.75 349.92 L 177.00 347.44 L 203.25 347.00 L 229.50 345.44 L 255.75 344.58 L 282.00 344.07 L 308.25 343.56 L 334.50 342.75 L 360.75 341.34 L 387.00 341.04 L 413.25 340.13 L 439.50 339.84 L 465.75 335.81 L 492.00 334.93 L 518.25 334.10 L 544.50 328.20 L 570.75 320.81 L 597.00 319.12 L 623.25 318.10 L 649.50 316.68 L 675.75 305.55 L 702.00 268.82 L 728.25 267.17 L 754.50 249.50 L 780.75 241.14 L 807.00 236.94 L 833.25 201.38 L 859.50 192.04 L 885.75 165.65 L 912.00 126.03 L 912.00 192.01 L 885.75 215.45 L 859.50 233.41 L 833.25 240.72 L 807.00 271.02 L 780.75 274.67 L 754.50 281.42 L 728.25 293.28 L 702.00 294.94 L 675.75 305.55 L 649.50 316.68 L 623.25 318.10 L 597.00 319.12 L 570.75 320.81 L 544.50 328.20 L 518.25 334.10 L 492.00 334.93 L 465.75 335.81 L 439.50 339.84 L 413.25 340.13 L 387.00 341.04 L 360.75 341.34 L 334.50 342.75 L 308.25 343.56 L 282.00 344.07 L 255.75 344.58 L 229.50 345.44 L 203.25 347.00 L 177.00 347.44 L 150.75 349.92 L 124.50 351.15 L 98.25 356.83 L 72.00 357.26 Z" fill="#ffb77c" fill-opacity="0.78"/>
<path d="M 72.00 357.26 L 98.25 356.83 L 124.50 351.15 L 150.75 349.92 L 177.00 347.44 L 203.25 347.00 L 229.50 345.44 L 255.75 344.58 L 282.00 344.07 L 308.25 343.56 L 334.50 342.75 L 360.75 341.34 L 387.00 341.04 L 413.25 340.13 L 439.50 339.84 L 465.75 335.81 L 492.00 334.93 L 518.25 334.10 L 544.50 328.20 L 570.75 320.81 L 597.00 319.12 L 623.25 318.10 L 649.50 316.68 L 675.75 305.55 L 702.00 268.82 L 728.25 267.17 L 754.50 249.50 L 780.75 241.14 L 807.00 236.94 L 833.25 201.38 L 859.50 192.04 L 885.75 165.65 L 912.00 126.03" fill="none" stroke="#ffb77c" stroke-width="1.5" stroke-opacity="0.95" stroke-linejoin="round" stroke-linecap="round"/>
<circle cx="72" cy="462" r="5" fill="#79c0ff"/>
<text class="legend" x="84" y="466">macOS US 1,631</text>
<circle cx="210" cy="462" r="5" fill="#2f81f7"/>
<text class="legend" x="222" y="466">macOS JP 628</text>
<circle cx="334" cy="462" r="5" fill="#7ee787"/>
<text class="legend" x="346" y="466">Windows US 21,140</text>
<circle cx="493" cy="462" r="5" fill="#3fb950"/>
<text class="legend" x="505" y="466">Windows JP 3,708</text>
<circle cx="645" cy="462" r="5" fill="#c9d1d9"/>
<text class="legend" x="657" y="466">Linux US 5,529</text>
<circle cx="72" cy="488" r="5" fill="#8b949e"/>
<text class="legend" x="84" y="492">Linux JP 1,362</text>
<circle cx="210" cy="488" r="5" fill="#ffb77c"/>
<text class="legend" x="222" y="492">Android US 13,195</text>
</svg>
