<svg xmlns="http://www.w3.org/2000/svg" width="960" height="580" viewBox="0 0 960 580" role="img" aria-labelledby="title desc">
<title id="title">Downloads by Platform</title>
<desc id="desc">JRickey/BattleShip has 36,980 release asset downloads in the current GitHub API data.</desc>
<style>
svg { font-family: -apple-system, BlinkMacSystemFont, 'Segoe UI', sans-serif; }
.surface { fill: #0d1117; stroke: #30363d; }
.plot-bg { fill: #161b22; }
.title { fill: #f0f6fc; font-size: 24px; font-weight: 700; }
.subtitle { fill: #8b949e; font-size: 14px; }
.axis { fill: #8b949e; font-size: 12px; }
.grid { stroke: #30363d; stroke-width: 1; }
.legend { fill: #f0f6fc; font-size: 13px; }
.stat { fill: #f0f6fc; font-size: 22px; font-weight: 700; }
.stat-label { fill: #8b949e; font-size: 12px; }
</style>
<rect class="surface" x="0.5" y="0.5" width="959" height="579" rx="10"/>
<text class="title" x="36" y="40">Downloads by Platform</text>
<text class="subtitle" x="36" y="64">Categorical x axis by release tag; US is lighter, JP is darker</text>
<text class="stat" x="902" y="39" text-anchor="end">36,980</text>
<text class="stat-label" x="902" y="61" text-anchor="end">downloads across 32 releases</text>
<rect class="plot-bg" x="72" y="112" width="840" height="250" rx="6"/>
<line class="grid" x1="72" y1="362.00" x2="912" y2="362.00"/>
<text class="axis" x="60" y="366.00" text-anchor="end">0</text>
<line class="grid" x1="72" y1="299.50" x2="912" y2="299.50"/>
<text class="axis" x="60" y="303.50" text-anchor="end">10k</text>
<line class="grid" x1="72" y1="237.00" x2="912" y2="237.00"/>
<text class="axis" x="60" y="241.00" text-anchor="end">20k</text>
<line class="grid" x1="72" y1="174.50" x2="912" y2="174.50"/>
<text class="axis" x="60" y="178.50" text-anchor="end">30k</text>
<line class="grid" x1="72" y1="112.00" x2="912" y2="112.00"/>
<text class="axis" x="60" y="116.00" text-anchor="end">40k</text>
<text class="axis" x="72.00" y="404" text-anchor="end" transform="rotate(-35 72.00 404)">v0.3.2</text>
<text class="axis" x="180.39" y="404" text-anchor="end" transform="rotate(-35 180.39 404)">v0.5.1-beta</text>
<text class="axis" x="288.77" y="404" text-anchor="end" transform="rotate(-35 288.77 404)">v0.7.2-beta-hotfix</text>
<text class="axis" x="397.16" y="404" text-anchor="end" transform="rotate(-35 397.16 404)">v0.7.4-beta</text>
<text class="axis" x="505.55" y="404" text-anchor="end" transform="rotate(-35 505.55 404)">v0.8.1-beta</text>
<text class="axis" x="613.94" y="404" text-anchor="end" transform="rotate(-35 613.94 404)">v0.9.1-beta</text>
<text class="axis" x="722.32" y="404" text-anchor="end" transform="rotate(-35 722.32 404)">v1.1</text>
<text class="axis" x="830.71" y="404" text-anchor="end" transform="rotate(-35 830.71 404)">v1.4</text>
<text class="axis" x="912.00" y="404" text-anchor="end" transform="rotate(-35 912.00 404)">v1.5.1</text>
<path d="M 72.00 361.74 L 99.10 361.65 L 126.19 361.19 L 153.29 361.06 L 180.39 360.71 L 207.48 360.64 L 234.58 360.50 L 261.68 360.42 L 288.77 360.37 L 315.87 360.30 L 342.97 360.22 L 370.06 360.07 L 397.16 360.02 L 424.26 359.94 L 451.35 359.89 L 478.45 359.66 L 505.55 359.58 L 532.65 359.51 L 559.74 359.14 L 586.84 358.75 L 613.94 358.61 L 641.03 358.52 L 668.13 358.43 L 695.23 357.91 L 722.32 357.05 L 749.42 356.91 L 776.52 356.33 L 803.61 355.74 L 830.71 355.34 L 857.81 354.32 L 884.90 354.12 L 912.00 353.69 L 912.00 362.00 L 884.90 362.00 L 857.81 362.00 L 830.71 362.00 L 803.61 362.00 L 776.52 362.00 L 749.42 362.00 L 722.32 362.00 L 695.23 362.00 L 668.13 362.00 L 641.03 362.00 L 613.94 362.00 L 586.84 362.00 L 559.74 362.00 L 532.65 362.00 L 505.55 362.00 L 478.45 362.00 L 451.35 362.00 L 424.26 362.00 L 397.16 362.00 L 370.06 362.00 L 342.97 362.00 L 315.87 362.00 L 288.77 362.00 L 261.68 362.00 L 234.58 362.00 L 207.48 362.00 L 180.39 362.00 L 153.29 362.00 L 126.19 362.00 L 99.10 362.00 L 72.00 362.00 Z" fill="#79c0ff" fill-opacity="0.78"/>
<path d="M 72.00 361.74 L 99.10 361.65 L 126.19 361.19 L 153.29 361.06 L 180.39 360.71 L 207.48 360.64 L 234.58 360.50 L 261.68 360.42 L 288.77 360.37 L 315.87 360.30 L 342.97 360.22 L 370.06 360.07 L 397.16 360.02 L 424.26 359.94 L 451.35 359.89 L 478.45 359.66 L 505.55 359.58 L 532.65 359.51 L 559.74 359.14 L 586.84 358.75 L 613.94 358.61 L 641.03 358.52 L 668.13 358.43 L 695.23 357.91 L 722.32 357.05 L 749.42 356.91 L 776.52 356.33 L 803.61 355.74 L 830.71 355.34 L 857.81 354.32 L 884.90 354.12 L 912.00 353.69" fill="none" stroke="#79c0ff" stroke-width="1.5" stroke-opacity="0.95" stroke-linejoin="round" stroke-linecap="round"/>
<path d="M 72.00 361.74 L 99.10 361.65 L 126.19 361.19 L 153.29 361.06 L 180.39 360.71 L 207.48 360.64 L 234.58 360.50 L 261.68 360.42 L 288.77 360.37 L 315.87 360.30 L 342.97 360.22 L 370.06 360.07 L 397.16 360.02 L 424.26 359.94 L 451.35 359.89 L 478.45 359.66 L 505.55 359.58 L 532.65 359.51 L 559.74 359.14 L 586.84 358.75 L 613.94 358.61 L 641.03 358.52 L 668.13 358.34 L 695.23 357.41 L 722.32 356.07 L 749.42 355.86 L 776.52 354.99 L 803.61 353.91 L 830.71 353.11 L 857.81 351.46 L 884.90 351.18 L 912.00 350.52 L 912.00 353.69 L 884.90 354.12 L 857.81 354.32 L 830.71 355.34 L 803.61 355.74 L 776.52 356.33 L 749.42 356.91 L 722.32 357.05 L 695.23 357.91 L 668.13 358.43 L 641.03 358.52 L 613.94 358.61 L 586.84 358.75 L 559.74 359.14 L 532.65 359.51 L 505.55 359.58 L 478.45 359.66 L 451.35 359.89 L 424.26 359.94 L 397.16 360.02 L 370.06 360.07 L 342.97 360.22 L 315.87 360.30 L 288.77 360.37 L 261.68 360.42 L 234.58 360.50 L 207.48 360.64 L 180.39 360.71 L 153.29 361.06 L 126.19 361.19 L 99.10 361.65 L 72.00 361.74 Z" fill="#2f81f7" fill-opacity="0.78"/>
<path d="M 72.00 361.74 L 99.10 361.65 L 126.19 361.19 L 153.29 361.06 L 180.39 360.71 L 207.48 360.64 L 234.58 360.50 L 261.68 360.42 L 288.77 360.37 L 315.87 360.30 L 342.97 360.22 L 370.06 360.07 L 397.16 360.02 L 424.26 359.94 L 451.35 359.89 L 478.45 359.66 L 505.55 359.58 L 532.65 359.51 L 559.74 359.14 L 586.84 358.75 L 613.94 358.61 L 641.03 358.52 L 668.13 358.34 L 695.23 357.41 L 722.32 356.07 L 749.42 355.86 L 776.52 354.99 L 803.61 353.91 L 830.71 353.11 L 857.81 351.46 L 884.90 351.18 L 912.00 350.52" fill="none" stroke="#2f81f7" stroke-width="1.5" stroke-opacity="0.95" stroke-linejoin="round" stroke-linecap="round"/>
<path d="M 72.00 357.18 L 99.10 356.81 L 126.19 351.09 L 153.29 349.92 L 180.39 347.50 L 207.48 347.14 L 234.58 345.67 L 261.68 344.89 L 288.77 344.43 L 315.87 344.01 L 342.97 343.27 L 370.06 341.98 L 397.16 341.75 L 424.26 340.94 L 451.35 340.74 L 478.45 336.77 L 505.55 336.01 L 532.65 335.29 L 559.74 330.42 L 586.84 323.17 L 613.94 321.60 L 641.03 320.68 L 668.13 319.72 L 695.23 313.32 L 722.32 305.16 L 749.42 303.95 L 776.52 294.19 L 803.61 289.12 L 830.71 286.46 L 857.81 259.51 L 884.90 253.57 L 912.00 240.26 L 912.00 350.52 L 884.90 351.18 L 857.81 351.46 L 830.71 353.11 L 803.61 353.91 L 776.52 354.99 L 749.42 355.86 L 722.32 356.07 L 695.23 357.41 L 668.13 358.34 L 641.03 358.52 L 613.94 358.61 L 586.84 358.75 L 559.74 359.14 L 532.65 359.51 L 505.55 359.58 L 478.45 359.66 L 451.35 359.89 L 424.26 359.94 L 397.16 360.02 L 370.06 360.07 L 342.97 360.22 L 315.87 360.30 L 288.77 360.37 L 261.68 360.42 L 234.58 360.50 L 207.48 360.64 L 180.39 360.71 L 153.29 361.06 L 126.19 361.19 L 99.10 361.65 L 72.00 361.74 Z" fill="#7ee787" fill-opacity="0.78"/>
<path d="M 72.00 357.18 L 99.10 356.81 L 126.19 351.09 L 153.29 349.92 L 180.39 347.50 L 207.48 347.14 L 234.58 345.67 L 261.68 344.89 L 288.77 344.43 L 315.87 344.01 L 342.97 343.27 L 370.06 341.98 L 397.16 341.75 L 424.26 340.94 L 451.35 340.74 L 478.45 336.77 L 505.55 336.01 L 532.65 335.29 L 559.74 330.42 L 586.84 323.17 L 613.94 321.60 L 641.03 320.68 L 668.13 319.72 L 695.23 313.32 L 722.32 305.16 L 749.42 303.95 L 776.52 294.19 L 803.61 289.12 L 830.71 286.46 L 857.81 259.51 L 884.90 253.57 L 912.00 240.26" fill="none" stroke="#7ee787" stroke-width="1.5" stroke-opacity="0.95" stroke-linejoin="round" stroke-linecap="round"/>
<path d="M 72.00 357.18 L 99.10 356.81 L 126.19 351.09 L 153.29 349.92 L 180.39 347.50 L 207.48 347.14 L 234.58 345.67 L 261.68 344.89 L 288.77 344.43 L 315.87 344.01 L 342.97 343.27 L 370.06 341.98 L 397.16 341.75 L 424.26 340.94 L 451.35 340.74 L 478.45 336.77 L 505.55 336.01 L 532.65 335.29 L 559.74 330.42 L 586.84 323.17 L 613.94 321.60 L 641.03 320.68 L 668.13 319.38 L 695.23 309.12 L 722.32 299.29 L 749.42 297.78 L 776.52 286.22 L 803.61 280.20 L 830.71 276.90 L 857.81 244.93 L 884.90 237.88 L 912.00 221.99 L 912.00 240.26 L 884.90 253.57 L 857.81 259.51 L 830.71 286.46 L 803.61 289.12 L 776.52 294.19 L 749.42 303.95 L 722.32 305.16 L 695.23 313.32 L 668.13 319.72 L 641.03 320.68 L 613.94 321.60 L 586.84 323.17 L 559.74 330.42 L 532.65 335.29 L 505.55 336.01 L 478.45 336.77 L 451.35 340.74 L 424.26 340.94 L 397.16 341.75 L 370.06 341.98 L 342.97 343.27 L 315.87 344.01 L 288.77 344.43 L 261.68 344.89 L 234.58 345.67 L 207.48 347.14 L 180.39 347.50 L 153.29 349.92 L 126.19 351.09 L 99.10 356.81 L 72.00 357.18 Z" fill="#3fb950" fill-opacity="0.78"/>
<path d="M 72.00 357.18 L 99.10 356.81 L 126.19 351.09 L 153.29 349.92 L 180.39 347.50 L 207.48 347.14 L 234.58 345.67 L 261.68 344.89 L 288.77 344.43 L 315.87 344.01 L 342.97 343.27 L 370.06 341.98 L 397.16 341.75 L 424.26 340.94 L 451.35 340.74 L 478.45 336.77 L 505.55 336.01 L 532.65 335.29 L 559.74 330.42 L 586.84 323.17 L 613.94 321.60 L 641.03 320.68 L 668.13 319.38 L 695.23 309.12 L 722.32 299.29 L 749.42 297.78 L 776.52 286.22 L 803.61 280.20 L 830.71 276.90 L 857.81 244.93 L 884.90 237.88 L 912.00 221.99" fill="none" stroke="#3fb950" stroke-width="1.5" stroke-opacity="0.95" stroke-linejoin="round" stroke-linecap="round"/>
<path d="M 72.00 356.15 L 99.10 355.69 L 126.19 348.66 L 153.29 347.19 L 180.39 344.20 L 207.48 343.73 L 234.58 341.85 L 261.68 340.86 L 288.77 340.29 L 315.87 339.73 L 342.97 338.79 L 370.06 337.11 L 397.16 336.80 L 424.26 335.75 L 451.35 335.46 L 478.45 330.51 L 505.55 329.48 L 532.65 328.52 L 559.74 322.36 L 586.84 313.19 L 613.94 311.15 L 641.03 309.96 L 668.13 308.46 L 695.23 296.82 L 722.32 285.02 L 749.42 283.23 L 776.52 269.21 L 803.61 261.64 L 830.71 257.77 L 857.81 221.64 L 884.90 213.24 L 912.00 193.89 L 912.00 221.99 L 884.90 237.88 L 857.81 244.93 L 830.71 276.90 L 803.61 280.20 L 776.52 286.22 L 749.42 297.78 L 722.32 299.29 L 695.23 309.12 L 668.13 319.38 L 641.03 320.68 L 613.94 321.60 L 586.84 323.17 L 559.74 330.42 L 532.65 335.29 L 505.55 336.01 L 478.45 336.77 L 451.35 340.74 L 424.26 340.94 L 397.16 341.75 L 370.06 341.98 L 342.97 343.27 L 315.87 344.01 L 288.77 344.43 L 261.68 344.89 L 234.58 345.67 L 207.48 347.14 L 180.39 347.50 L 153.29 349.92 L 126.19 351.09 L 99.10 356.81 L 72.00 357.18 Z" fill="#c9d1d9" fill-opacity="0.78"/>
<path d="M 72.00 356.15 L 99.10 355.69 L 126.19 348.66 L 153.29 347.19 L 180.39 344.20 L 207.48 343.73 L 234.58 341.85 L 261.68 340.86 L 288.77 340.29 L 315.87 339.73 L 342.97 338.79 L 370.06 337.11 L 397.16 336.80 L 424.26 335.75 L 451.35 335.46 L 478.45 330.51 L 505.55 329.48 L 532.65 328.52 L 559.74 322.36 L 586.84 313.19 L 613.94 311.15 L 641.03 309.96 L 668.13 308.46 L 695.23 296.82 L 722.32 285.02 L 749.42 283.23 L 776.52 269.21 L 803.61 261.64 L 830.71 257.77 L 857.81 221.64 L 884.90 213.24 L 912.00 193.89" fill="none" stroke="#c9d1d9" stroke-width="1.5" stroke-opacity="0.95" stroke-linejoin="round" stroke-linecap="round"/>
<path d="M 72.00 356.15 L 99.10 355.69 L 126.19 348.66 L 153.29 347.19 L 180.39 344.20 L 207.48 343.73 L 234.58 341.85 L 261.68 340.86 L 288.77 340.29 L 315.87 339.73 L 342.97 338.79 L 370.06 337.11 L 397.16 336.80 L 424.26 335.75 L 451.35 335.46 L 478.45 330.51 L 505.55 329.48 L 532.65 328.52 L 559.74 322.36 L 586.84 313.19 L 613.94 311.15 L 641.03 309.96 L 668.13 308.33 L 695.23 295.57 L 722.32 282.78 L 749.42 280.88 L 776.52 266.27 L 803.61 258.09 L 830.71 253.79 L 857.81 216.19 L 884.90 207.40 L 912.00 187.16 L 912.00 193.89 L 884.90 213.24 L 857.81 221.64 L 830.71 257.77 L 803.61 261.64 L 776.52 269.21 L 749.42 283.23 L 722.32 285.02 L 695.23 296.82 L 668.13 308.46 L 641.03 309.96 L 613.94 311.15 L 586.84 313.19 L 559.74 322.36 L 532.65 328.52 L 505.55 329.48 L 478.45 330.51 L 451.35 335.46 L 424.26 335.75 L 397.16 336.80 L 370.06 337.11 L 342.97 338.79 L 315.87 339.73 L 288.77 340.29 L 261.68 340.86 L 234.58 341.85 L 207.48 343.73 L 180.39 344.20 L 153.29 347.19 L 126.19 348.66 L 99.10 355.69 L 72.00 356.15 Z" fill="#8b949e" fill-opacity="0.78"/>
<path d="M 72.00 356.15 L 99.10 355.69 L 126.19 348.66 L 153.29 347.19 L 180.39 344.20 L 207.48 343.73 L 234.58 341.85 L 261.68 340.86 L 288.77 340.29 L 315.87 339.73 L 342.97 338.79 L 370.06 337.11 L 397.16 336.80 L 424.26 335.75 L 451.35 335.46 L 478.45 330.51 L 505.55 329.48 L 532.65 328.52 L 559.74 322.36 L 586.84 313.19 L 613.94 311.15 L 641.03 309.96 L 668.13 308.33 L 695.23 295.57 L 722.32 282.78 L 749.42 280.88 L 776.52 266.27 L 803.61 258.09 L 830.71 253.79 L 857.81 216.19 L 884.90 207.40 L 912.00 187.16" fill="none" stroke="#8b949e" stroke-width="1.5" stroke-opacity="0.95" stroke-linejoin="round" stroke-linecap="round"/>
<path d="M 72.00 356.15 L 99.10 355.69 L 126.19 348.66 L 153.29 347.19 L 180.39 344.20 L 207.48 343.73 L 234.58 341.85 L 261.68 340.86 L 288.77 340.29 L 315.87 339.73 L 342.97 338.79 L 370.06 337.11 L 397.16 336.80 L 424.26 335.75 L 451.35 335.46 L 478.45 330.51 L 505.55 329.48 L 532.65 328.52 L 559.74 322.36 L 586.84 313.19 L 613.94 311.15 L 641.03 309.96 L 668.13 308.33 L 695.23 295.57 L 722.32 253.69 L 749.42 251.78 L 776.52 230.22 L 803.61 220.08 L 830.71 215.14 L 857.81 171.33 L 884.90 160.12 L 912.00 130.88 L 912.00 187.16 L 884.90 207.40 L 857.81 216.19 L 830.71 253.79 L 803.61 258.09 L 776.52 266.27 L 749.42 280.88 L 722.32 282.78 L 695.23 295.57 L 668.13 308.33 L 641.03 309.96 L 613.94 311.15 L 586.84 313.19 L 559.74 322.36 L 532.65 328.52 L 505.55 329.48 L 478.45 330.51 L 451.35 335.46 L 424.26 335.75 L 397.16 336.80 L 370.06 337.11 L 342.97 338.79 L 315.87 339.73 L 288.77 340.29 L 261.68 340.86 L 234.58 341.85 L 207.48 343.73 L 180.39 344.20 L 153.29 347.19 L 126.19 348.66 L 99.10 355.69 L 72.00 356.15 Z" fill="#ffb77c" fill-opacity="0.78"/>
<path d="M 72.00 356.15 L 99.10 355.69 L 126.19 348.66 L 153.29 347.19 L 180.39 344.20 L 207.48 343.73 L 234.58 341.85 L 261.68 340.86 L 288.77 340.29 L 315.87 339.73 L 342.97 338.79 L 370.06 337.11 L 397.16 336.80 L 424.26 335.75 L 451.35 335.46 L 478.45 330.51 L 505.55 329.48 L 532.65 328.52 L 559.74 322.36 L 586.84 313.19 L 613.94 311.15 L 641.03 309.96 L 668.13 308.33 L 695.23 295.57 L 722.32 253.69 L 749.42 251.78 L 776.52 230.22 L 803.61 220.08 L 830.71 215.14 L 857.81 171.33 L 884.90 160.12 L 912.00 130.88" fill="none" stroke="#ffb77c" stroke-width="1.5" stroke-opacity="0.95" stroke-linejoin="round" stroke-linecap="round"/>
<circle cx="72" cy="462" r="5" fill="#79c0ff"/>
<text class="legend" x="84" y="466">macOS US 1,329</text>
<circle cx="210" cy="462" r="5" fill="#2f81f7"/>
<text class="legend" x="222" y="466">macOS JP 508</text>
<circle cx="334" cy="462" r="5" fill="#7ee787"/>
<text class="legend" x="346" y="466">Windows US 17,642</text>
<circle cx="493" cy="462" r="5" fill="#3fb950"/>
<text class="legend" x="505" y="466">Windows JP 2,923</text>
<circle cx="645" cy="462" r="5" fill="#c9d1d9"/>
<text class="legend" x="657" y="466">Linux US 4,496</text>
<circle cx="72" cy="488" r="5" fill="#8b949e"/>
<text class="legend" x="84" y="492">Linux JP 1,077</text>
<circle cx="210" cy="488" r="5" fill="#ffb77c"/>
<text class="legend" x="222" y="492">Android US 9,005</text>
</svg>
