<svg xmlns="http://www.w3.org/2000/svg" width="960" height="420" viewBox="0 0 960 420" role="img" aria-labelledby="title desc">
<title id="title">GitHub star growth</title>
<desc id="desc">JRickey/BattleShip has 428 stars in the current GitHub API data.</desc>
<style>
svg { font-family: -apple-system, BlinkMacSystemFont, 'Segoe UI', sans-serif; }
.surface { fill: #ffffff; stroke: #d0d7de; }
.plot-bg { fill: #f6f8fa; }
.title { fill: #24292f; font-size: 24px; font-weight: 700; }
.subtitle { fill: #57606a; font-size: 14px; }
.axis { fill: #57606a; font-size: 12px; }
.grid { stroke: #d8dee4; stroke-width: 1; }
.legend { fill: #24292f; font-size: 13px; }
.stat { fill: #24292f; font-size: 22px; font-weight: 700; }
.stat-label { fill: #57606a; font-size: 12px; }
</style>
<rect class="surface" x="0.5" y="0.5" width="959" height="419" rx="10"/>
<defs>
<linearGradient id="starFill" x1="0" y1="0" x2="0" y2="1">
<stop offset="0%" stop-color="#ffd08a" stop-opacity="0.62"/>
<stop offset="100%" stop-color="#fff7eb" stop-opacity="0.12"/>
</linearGradient>
</defs>
<text class="title" x="36" y="40">GitHub star growth</text>
<text class="subtitle" x="36" y="64">Since repository creation</text>
<text class="stat" x="902" y="39" text-anchor="end">428</text>
<text class="stat-label" x="902" y="61" text-anchor="end">stars</text>
<rect class="plot-bg" x="72" y="100" width="840" height="250" rx="6"/>
<line class="grid" x1="72" y1="350.00" x2="912" y2="350.00"/>
<text class="axis" x="60" y="354.00" text-anchor="end">0</text>
<line class="grid" x1="72" y1="287.50" x2="912" y2="287.50"/>
<text class="axis" x="60" y="291.50" text-anchor="end">125</text>
<line class="grid" x1="72" y1="225.00" x2="912" y2="225.00"/>
<text class="axis" x="60" y="229.00" text-anchor="end">250</text>
<line class="grid" x1="72" y1="162.50" x2="912" y2="162.50"/>
<text class="axis" x="60" y="166.50" text-anchor="end">375</text>
<line class="grid" x1="72" y1="100.00" x2="912" y2="100.00"/>
<text class="axis" x="60" y="104.00" text-anchor="end">500</text>
<text class="axis" x="72.00" y="384" text-anchor="middle">Apr 4, 2026</text>
<text class="axis" x="350.28" y="384" text-anchor="middle">May 28, 2026</text>
<text class="axis" x="633.72" y="384" text-anchor="middle">Jul 22, 2026</text>
<text class="axis" x="912.00" y="384" text-anchor="middle">Sep 14, 2026</text>
<path d="M 72.00 350.00 L 72.00 350.00 L 200.83 337.50 L 205.99 302.50 L 211.14 289.50 L 216.29 284.50 L 221.45 281.50 L 226.60 278.00 L 231.75 275.50 L 236.91 274.00 L 242.06 270.50 L 247.21 266.50 L 252.37 264.50 L 257.52 259.50 L 262.67 259.00 L 267.83 257.50 L 272.98 256.00 L 278.13 252.50 L 283.29 249.00 L 288.44 247.50 L 293.60 245.50 L 298.75 243.50 L 309.06 242.50 L 314.21 241.50 L 319.36 240.00 L 324.52 238.00 L 329.67 234.00 L 334.82 227.00 L 339.98 218.50 L 345.13 214.00 L 350.28 212.00 L 355.44 210.00 L 360.59 209.50 L 365.74 208.50 L 370.90 207.00 L 376.05 206.00 L 381.20 205.50 L 386.36 205.00 L 391.51 203.50 L 396.66 203.00 L 401.82 202.50 L 406.97 202.00 L 412.12 201.00 L 422.43 200.00 L 437.89 199.00 L 443.04 197.50 L 448.20 196.50 L 453.35 195.50 L 463.66 195.00 L 468.81 192.00 L 473.96 191.50 L 479.12 190.50 L 489.42 189.50 L 504.88 189.00 L 510.04 188.50 L 515.19 188.00 L 530.65 187.50 L 535.80 187.00 L 540.96 186.50 L 546.11 185.00 L 551.26 184.50 L 556.42 184.00 L 561.57 183.00 L 571.88 181.50 L 582.18 181.00 L 587.34 180.50 L 607.95 179.00 L 618.26 178.50 L 623.41 178.00 L 628.56 177.50 L 633.72 176.50 L 638.87 175.50 L 644.02 175.00 L 649.18 174.00 L 654.33 173.00 L 659.48 171.50 L 664.64 170.50 L 669.79 170.00 L 674.94 169.50 L 680.10 169.00 L 685.25 168.00 L 690.40 167.00 L 695.56 166.00 L 700.71 165.50 L 705.87 163.50 L 711.02 162.50 L 716.17 161.00 L 721.33 160.50 L 726.48 159.50 L 731.63 158.50 L 736.79 158.00 L 747.09 157.50 L 752.25 157.00 L 757.40 155.50 L 762.55 155.00 L 772.86 153.50 L 788.32 152.50 L 798.63 151.50 L 803.78 149.50 L 808.93 147.50 L 814.09 147.00 L 819.24 146.00 L 824.39 145.50 L 829.55 144.50 L 834.70 143.50 L 850.16 142.00 L 860.47 141.50 L 870.77 141.00 L 875.93 140.00 L 881.08 139.50 L 886.23 138.50 L 901.69 137.50 L 906.85 137.00 L 912.00 136.00 L 912.00 350.00 Z" fill="url(#starFill)"/>
<path d="M 72.00 350.00 L 200.83 337.50 L 205.99 302.50 L 211.14 289.50 L 216.29 284.50 L 221.45 281.50 L 226.60 278.00 L 231.75 275.50 L 236.91 274.00 L 242.06 270.50 L 247.21 266.50 L 252.37 264.50 L 257.52 259.50 L 262.67 259.00 L 267.83 257.50 L 272.98 256.00 L 278.13 252.50 L 283.29 249.00 L 288.44 247.50 L 293.60 245.50 L 298.75 243.50 L 309.06 242.50 L 314.21 241.50 L 319.36 240.00 L 324.52 238.00 L 329.67 234.00 L 334.82 227.00 L 339.98 218.50 L 345.13 214.00 L 350.28 212.00 L 355.44 210.00 L 360.59 209.50 L 365.74 208.50 L 370.90 207.00 L 376.05 206.00 L 381.20 205.50 L 386.36 205.00 L 391.51 203.50 L 396.66 203.00 L 401.82 202.50 L 406.97 202.00 L 412.12 201.00 L 422.43 200.00 L 437.89 199.00 L 443.04 197.50 L 448.20 196.50 L 453.35 195.50 L 463.66 195.00 L 468.81 192.00 L 473.96 191.50 L 479.12 190.50 L 489.42 189.50 L 504.88 189.00 L 510.04 188.50 L 515.19 188.00 L 530.65 187.50 L 535.80 187.00 L 540.96 186.50 L 546.11 185.00 L 551.26 184.50 L 556.42 184.00 L 561.57 183.00 L 571.88 181.50 L 582.18 181.00 L 587.34 180.50 L 607.95 179.00 L 618.26 178.50 L 623.41 178.00 L 628.56 177.50 L 633.72 176.50 L 638.87 175.50 L 644.02 175.00 L 649.18 174.00 L 654.33 173.00 L 659.48 171.50 L 664.64 170.50 L 669.79 170.00 L 674.94 169.50 L 680.10 169.00 L 685.25 168.00 L 690.40 167.00 L 695.56 166.00 L 700.71 165.50 L 705.87 163.50 L 711.02 162.50 L 716.17 161.00 L 721.33 160.50 L 726.48 159.50 L 731.63 158.50 L 736.79 158.00 L 747.09 157.50 L 752.25 157.00 L 757.40 155.50 L 762.55 155.00 L 772.86 153.50 L 788.32 152.50 L 798.63 151.50 L 803.78 149.50 L 808.93 147.50 L 814.09 147.00 L 819.24 146.00 L 824.39 145.50 L 829.55 144.50 L 834.70 143.50 L 850.16 142.00 L 860.47 141.50 L 870.77 141.00 L 875.93 140.00 L 881.08 139.50 L 886.23 138.50 L 901.69 137.50 L 906.85 137.00 L 912.00 136.00" fill="none" stroke="#fb8500" stroke-width="3" stroke-linejoin="round" stroke-linecap="round"/>
<circle cx="912.00" cy="136.00" r="4.5" fill="#fb8500"/>
</svg>
