<svg xmlns="http://www.w3.org/2000/svg" width="960" height="420" viewBox="0 0 960 420" role="img" aria-labelledby="title desc">
<title id="title">GitHub star growth</title>
<desc id="desc">JRickey/BattleShip has 388 stars in the current GitHub API data.</desc>
<style>
svg { font-family: -apple-system, BlinkMacSystemFont, 'Segoe UI', sans-serif; }
.surface { fill: #ffffff; stroke: #d0d7de; }
.plot-bg { fill: #f6f8fa; }
.title { fill: #24292f; font-size: 24px; font-weight: 700; }
.subtitle { fill: #57606a; font-size: 14px; }
.axis { fill: #57606a; font-size: 12px; }
.grid { stroke: #d8dee4; stroke-width: 1; }
.legend { fill: #24292f; font-size: 13px; }
.stat { fill: #24292f; font-size: 22px; font-weight: 700; }
.stat-label { fill: #57606a; font-size: 12px; }
</style>
<rect class="surface" x="0.5" y="0.5" width="959" height="419" rx="10"/>
<defs>
<linearGradient id="starFill" x1="0" y1="0" x2="0" y2="1">
<stop offset="0%" stop-color="#ffd08a" stop-opacity="0.62"/>
<stop offset="100%" stop-color="#fff7eb" stop-opacity="0.12"/>
</linearGradient>
</defs>
<text class="title" x="36" y="40">GitHub star growth</text>
<text class="subtitle" x="36" y="64">Since repository creation</text>
<text class="stat" x="902" y="39" text-anchor="end">388</text>
<text class="stat-label" x="902" y="61" text-anchor="end">stars</text>
<rect class="plot-bg" x="72" y="100" width="840" height="250" rx="6"/>
<line class="grid" x1="72" y1="350.00" x2="912" y2="350.00"/>
<text class="axis" x="60" y="354.00" text-anchor="end">0</text>
<line class="grid" x1="72" y1="287.50" x2="912" y2="287.50"/>
<text class="axis" x="60" y="291.50" text-anchor="end">100</text>
<line class="grid" x1="72" y1="225.00" x2="912" y2="225.00"/>
<text class="axis" x="60" y="229.00" text-anchor="end">200</text>
<line class="grid" x1="72" y1="162.50" x2="912" y2="162.50"/>
<text class="axis" x="60" y="166.50" text-anchor="end">300</text>
<line class="grid" x1="72" y1="100.00" x2="912" y2="100.00"/>
<text class="axis" x="60" y="104.00" text-anchor="end">400</text>
<text class="axis" x="72.00" y="384" text-anchor="middle">Apr 4, 2026</text>
<text class="axis" x="352.00" y="384" text-anchor="middle">May 17, 2026</text>
<text class="axis" x="632.00" y="384" text-anchor="middle">Jun 29, 2026</text>
<text class="axis" x="912.00" y="384" text-anchor="middle">Aug 11, 2026</text>
<path d="M 72.00 350.00 L 72.00 350.00 L 234.79 334.38 L 241.30 290.62 L 247.81 274.38 L 254.33 268.12 L 260.84 264.38 L 267.35 260.00 L 273.86 256.88 L 280.37 255.00 L 286.88 250.00 L 293.40 245.00 L 299.91 242.50 L 306.42 236.25 L 312.93 235.62 L 319.44 233.75 L 325.95 231.88 L 332.47 227.50 L 338.98 223.12 L 345.49 221.25 L 352.00 218.75 L 358.51 216.25 L 371.53 215.00 L 378.05 213.75 L 384.56 211.88 L 391.07 209.38 L 397.58 204.38 L 404.09 195.62 L 410.60 185.00 L 417.12 178.75 L 423.63 176.25 L 430.14 173.75 L 436.65 173.12 L 443.16 171.88 L 449.67 170.00 L 456.19 168.75 L 462.70 168.12 L 469.21 167.50 L 475.72 165.62 L 482.23 164.38 L 488.74 163.75 L 495.26 163.12 L 501.77 161.88 L 508.28 161.25 L 514.79 160.00 L 534.33 158.75 L 540.84 156.88 L 547.35 155.62 L 553.86 154.38 L 566.88 153.75 L 573.40 150.00 L 579.91 149.38 L 586.42 148.12 L 599.44 146.88 L 618.98 146.25 L 625.49 145.62 L 632.00 145.00 L 651.53 144.38 L 658.05 143.75 L 664.56 143.12 L 671.07 141.25 L 677.58 140.62 L 684.09 140.00 L 690.60 138.75 L 703.63 136.88 L 716.65 136.25 L 723.16 135.62 L 749.21 133.75 L 762.23 133.12 L 768.74 132.50 L 775.26 131.88 L 781.77 130.62 L 788.28 129.38 L 794.79 128.75 L 801.30 127.50 L 807.81 126.25 L 814.33 124.38 L 820.84 123.12 L 827.35 122.50 L 833.86 121.88 L 840.37 121.25 L 846.88 120.00 L 853.40 118.75 L 859.91 117.50 L 866.42 116.88 L 872.93 114.38 L 879.44 113.12 L 885.95 111.25 L 892.47 110.62 L 898.98 109.38 L 905.49 108.12 L 912.00 107.50 L 912.00 350.00 Z" fill="url(#starFill)"/>
<path d="M 72.00 350.00 L 234.79 334.38 L 241.30 290.62 L 247.81 274.38 L 254.33 268.12 L 260.84 264.38 L 267.35 260.00 L 273.86 256.88 L 280.37 255.00 L 286.88 250.00 L 293.40 245.00 L 299.91 242.50 L 306.42 236.25 L 312.93 235.62 L 319.44 233.75 L 325.95 231.88 L 332.47 227.50 L 338.98 223.12 L 345.49 221.25 L 352.00 218.75 L 358.51 216.25 L 371.53 215.00 L 378.05 213.75 L 384.56 211.88 L 391.07 209.38 L 397.58 204.38 L 404.09 195.62 L 410.60 185.00 L 417.12 178.75 L 423.63 176.25 L 430.14 173.75 L 436.65 173.12 L 443.16 171.88 L 449.67 170.00 L 456.19 168.75 L 462.70 168.12 L 469.21 167.50 L 475.72 165.62 L 482.23 164.38 L 488.74 163.75 L 495.26 163.12 L 501.77 161.88 L 508.28 161.25 L 514.79 160.00 L 534.33 158.75 L 540.84 156.88 L 547.35 155.62 L 553.86 154.38 L 566.88 153.75 L 573.40 150.00 L 579.91 149.38 L 586.42 148.12 L 599.44 146.88 L 618.98 146.25 L 625.49 145.62 L 632.00 145.00 L 651.53 144.38 L 658.05 143.75 L 664.56 143.12 L 671.07 141.25 L 677.58 140.62 L 684.09 140.00 L 690.60 138.75 L 703.63 136.88 L 716.65 136.25 L 723.16 135.62 L 749.21 133.75 L 762.23 133.12 L 768.74 132.50 L 775.26 131.88 L 781.77 130.62 L 788.28 129.38 L 794.79 128.75 L 801.30 127.50 L 807.81 126.25 L 814.33 124.38 L 820.84 123.12 L 827.35 122.50 L 833.86 121.88 L 840.37 121.25 L 846.88 120.00 L 853.40 118.75 L 859.91 117.50 L 866.42 116.88 L 872.93 114.38 L 879.44 113.12 L 885.95 111.25 L 892.47 110.62 L 898.98 109.38 L 905.49 108.12 L 912.00 107.50" fill="none" stroke="#fb8500" stroke-width="3" stroke-linejoin="round" stroke-linecap="round"/>
<circle cx="912.00" cy="107.50" r="4.5" fill="#fb8500"/>
</svg>
