<svg xmlns="http://www.w3.org/2000/svg" width="960" height="420" viewBox="0 0 960 420" role="img" aria-labelledby="title desc">
<title id="title">GitHub star growth</title>
<desc id="desc">JRickey/BattleShip has 401 stars in the current GitHub API data.</desc>
<style>
svg { font-family: -apple-system, BlinkMacSystemFont, 'Segoe UI', sans-serif; }
.surface { fill: #0d1117; stroke: #30363d; }
.plot-bg { fill: #161b22; }
.title { fill: #f0f6fc; font-size: 24px; font-weight: 700; }
.subtitle { fill: #8b949e; font-size: 14px; }
.axis { fill: #8b949e; font-size: 12px; }
.grid { stroke: #30363d; stroke-width: 1; }
.legend { fill: #f0f6fc; font-size: 13px; }
.stat { fill: #f0f6fc; font-size: 22px; font-weight: 700; }
.stat-label { fill: #8b949e; font-size: 12px; }
</style>
<rect class="surface" x="0.5" y="0.5" width="959" height="419" rx="10"/>
<defs>
<linearGradient id="starFill" x1="0" y1="0" x2="0" y2="1">
<stop offset="0%" stop-color="#9e6a03" stop-opacity="0.62"/>
<stop offset="100%" stop-color="#161b22" stop-opacity="0.12"/>
</linearGradient>
</defs>
<text class="title" x="36" y="40">GitHub star growth</text>
<text class="subtitle" x="36" y="64">Since repository creation</text>
<text class="stat" x="902" y="39" text-anchor="end">401</text>
<text class="stat-label" x="902" y="61" text-anchor="end">stars</text>
<rect class="plot-bg" x="72" y="100" width="840" height="250" rx="6"/>
<line class="grid" x1="72" y1="350.00" x2="912" y2="350.00"/>
<text class="axis" x="60" y="354.00" text-anchor="end">0</text>
<line class="grid" x1="72" y1="287.50" x2="912" y2="287.50"/>
<text class="axis" x="60" y="291.50" text-anchor="end">125</text>
<line class="grid" x1="72" y1="225.00" x2="912" y2="225.00"/>
<text class="axis" x="60" y="229.00" text-anchor="end">250</text>
<line class="grid" x1="72" y1="162.50" x2="912" y2="162.50"/>
<text class="axis" x="60" y="166.50" text-anchor="end">375</text>
<line class="grid" x1="72" y1="100.00" x2="912" y2="100.00"/>
<text class="axis" x="60" y="104.00" text-anchor="end">500</text>
<text class="axis" x="72.00" y="384" text-anchor="middle">Apr 4, 2026</text>
<text class="axis" x="350.03" y="384" text-anchor="middle">May 21, 2026</text>
<text class="axis" x="633.97" y="384" text-anchor="middle">Jul 8, 2026</text>
<text class="axis" x="912.00" y="384" text-anchor="middle">Aug 24, 2026</text>
<path d="M 72.00 350.00 L 72.00 350.00 L 219.89 337.50 L 225.80 302.50 L 231.72 289.50 L 237.63 284.50 L 243.55 281.50 L 249.46 278.00 L 255.38 275.50 L 261.30 274.00 L 267.21 270.50 L 273.13 266.50 L 279.04 264.50 L 284.96 259.50 L 290.87 259.00 L 296.79 257.50 L 302.70 256.00 L 308.62 252.50 L 314.54 249.00 L 320.45 247.50 L 326.37 245.50 L 332.28 243.50 L 344.11 242.50 L 350.03 241.50 L 355.94 240.00 L 361.86 238.00 L 367.77 234.00 L 373.69 227.00 L 379.61 218.50 L 385.52 214.00 L 391.44 212.00 L 397.35 210.00 L 403.27 209.50 L 409.18 208.50 L 415.10 207.00 L 421.01 206.00 L 426.93 205.50 L 432.85 205.00 L 438.76 203.50 L 444.68 203.00 L 450.59 202.50 L 456.51 202.00 L 462.42 201.00 L 474.25 200.00 L 492.00 199.00 L 497.92 197.50 L 503.83 196.50 L 509.75 195.50 L 521.58 195.00 L 527.49 192.00 L 533.41 191.50 L 539.32 190.50 L 551.15 189.50 L 568.90 189.00 L 574.82 188.50 L 580.73 188.00 L 598.48 187.50 L 604.39 187.00 L 610.31 186.50 L 616.23 185.00 L 622.14 184.50 L 628.06 184.00 L 633.97 183.00 L 645.80 181.50 L 657.63 181.00 L 663.55 180.50 L 687.21 179.00 L 699.04 178.50 L 704.96 178.00 L 710.87 177.50 L 716.79 176.50 L 722.70 175.50 L 728.62 175.00 L 734.54 174.00 L 740.45 173.00 L 746.37 171.50 L 752.28 170.50 L 758.20 170.00 L 764.11 169.50 L 770.03 169.00 L 775.94 168.00 L 781.86 167.00 L 787.77 166.00 L 793.69 165.50 L 799.61 163.50 L 805.52 162.50 L 811.44 161.00 L 817.35 160.50 L 823.27 159.50 L 829.18 158.50 L 835.10 158.00 L 846.93 157.50 L 852.85 157.00 L 858.76 155.50 L 864.68 155.00 L 876.51 153.50 L 894.25 152.50 L 906.08 151.50 L 912.00 149.50 L 912.00 350.00 Z" fill="url(#starFill)"/>
<path d="M 72.00 350.00 L 219.89 337.50 L 225.80 302.50 L 231.72 289.50 L 237.63 284.50 L 243.55 281.50 L 249.46 278.00 L 255.38 275.50 L 261.30 274.00 L 267.21 270.50 L 273.13 266.50 L 279.04 264.50 L 284.96 259.50 L 290.87 259.00 L 296.79 257.50 L 302.70 256.00 L 308.62 252.50 L 314.54 249.00 L 320.45 247.50 L 326.37 245.50 L 332.28 243.50 L 344.11 242.50 L 350.03 241.50 L 355.94 240.00 L 361.86 238.00 L 367.77 234.00 L 373.69 227.00 L 379.61 218.50 L 385.52 214.00 L 391.44 212.00 L 397.35 210.00 L 403.27 209.50 L 409.18 208.50 L 415.10 207.00 L 421.01 206.00 L 426.93 205.50 L 432.85 205.00 L 438.76 203.50 L 444.68 203.00 L 450.59 202.50 L 456.51 202.00 L 462.42 201.00 L 474.25 200.00 L 492.00 199.00 L 497.92 197.50 L 503.83 196.50 L 509.75 195.50 L 521.58 195.00 L 527.49 192.00 L 533.41 191.50 L 539.32 190.50 L 551.15 189.50 L 568.90 189.00 L 574.82 188.50 L 580.73 188.00 L 598.48 187.50 L 604.39 187.00 L 610.31 186.50 L 616.23 185.00 L 622.14 184.50 L 628.06 184.00 L 633.97 183.00 L 645.80 181.50 L 657.63 181.00 L 663.55 180.50 L 687.21 179.00 L 699.04 178.50 L 704.96 178.00 L 710.87 177.50 L 716.79 176.50 L 722.70 175.50 L 728.62 175.00 L 734.54 174.00 L 740.45 173.00 L 746.37 171.50 L 752.28 170.50 L 758.20 170.00 L 764.11 169.50 L 770.03 169.00 L 775.94 168.00 L 781.86 167.00 L 787.77 166.00 L 793.69 165.50 L 799.61 163.50 L 805.52 162.50 L 811.44 161.00 L 817.35 160.50 L 823.27 159.50 L 829.18 158.50 L 835.10 158.00 L 846.93 157.50 L 852.85 157.00 L 858.76 155.50 L 864.68 155.00 L 876.51 153.50 L 894.25 152.50 L 906.08 151.50 L 912.00 149.50" fill="none" stroke="#ffa657" stroke-width="3" stroke-linejoin="round" stroke-linecap="round"/>
<circle cx="912.00" cy="149.50" r="4.5" fill="#ffa657"/>
</svg>
