<svg xmlns="http://www.w3.org/2000/svg" width="960" height="420" viewBox="0 0 960 420" role="img" aria-labelledby="title desc">
<title id="title">GitHub star growth</title>
<desc id="desc">JRickey/BattleShip has 368 stars in the current GitHub API data.</desc>
<style>
svg { font-family: -apple-system, BlinkMacSystemFont, 'Segoe UI', sans-serif; }
.surface { fill: #0d1117; stroke: #30363d; }
.plot-bg { fill: #161b22; }
.title { fill: #f0f6fc; font-size: 24px; font-weight: 700; }
.subtitle { fill: #8b949e; font-size: 14px; }
.axis { fill: #8b949e; font-size: 12px; }
.grid { stroke: #30363d; stroke-width: 1; }
.legend { fill: #f0f6fc; font-size: 13px; }
.stat { fill: #f0f6fc; font-size: 22px; font-weight: 700; }
.stat-label { fill: #8b949e; font-size: 12px; }
</style>
<rect class="surface" x="0.5" y="0.5" width="959" height="419" rx="10"/>
<defs>
<linearGradient id="starFill" x1="0" y1="0" x2="0" y2="1">
<stop offset="0%" stop-color="#9e6a03" stop-opacity="0.62"/>
<stop offset="100%" stop-color="#161b22" stop-opacity="0.12"/>
</linearGradient>
</defs>
<text class="title" x="36" y="40">GitHub star growth</text>
<text class="subtitle" x="36" y="64">Since repository creation</text>
<text class="stat" x="902" y="39" text-anchor="end">368</text>
<text class="stat-label" x="902" y="61" text-anchor="end">stars</text>
<rect class="plot-bg" x="72" y="100" width="840" height="250" rx="6"/>
<line class="grid" x1="72" y1="350.00" x2="912" y2="350.00"/>
<text class="axis" x="60" y="354.00" text-anchor="end">0</text>
<line class="grid" x1="72" y1="287.50" x2="912" y2="287.50"/>
<text class="axis" x="60" y="291.50" text-anchor="end">100</text>
<line class="grid" x1="72" y1="225.00" x2="912" y2="225.00"/>
<text class="axis" x="60" y="229.00" text-anchor="end">200</text>
<line class="grid" x1="72" y1="162.50" x2="912" y2="162.50"/>
<text class="axis" x="60" y="166.50" text-anchor="end">300</text>
<line class="grid" x1="72" y1="100.00" x2="912" y2="100.00"/>
<text class="axis" x="60" y="104.00" text-anchor="end">400</text>
<text class="axis" x="72.00" y="384" text-anchor="middle">Apr 4, 2026</text>
<text class="axis" x="354.35" y="384" text-anchor="middle">May 14, 2026</text>
<text class="axis" x="629.65" y="384" text-anchor="middle">Jun 22, 2026</text>
<text class="axis" x="912.00" y="384" text-anchor="middle">Aug 1, 2026</text>
<path d="M 72.00 350.00 L 72.00 350.00 L 248.47 334.38 L 255.53 290.62 L 262.59 274.38 L 269.65 268.12 L 276.71 264.38 L 283.76 260.00 L 290.82 256.88 L 297.88 255.00 L 304.94 250.00 L 312.00 245.00 L 319.06 242.50 L 326.12 236.25 L 333.18 235.62 L 340.24 233.75 L 347.29 231.88 L 354.35 227.50 L 361.41 223.12 L 368.47 221.25 L 375.53 218.75 L 382.59 216.25 L 396.71 215.00 L 403.76 213.75 L 410.82 211.88 L 417.88 209.38 L 424.94 204.38 L 432.00 195.62 L 439.06 185.00 L 446.12 178.75 L 453.18 176.25 L 460.24 173.75 L 467.29 173.12 L 474.35 171.88 L 481.41 170.00 L 488.47 168.75 L 495.53 168.12 L 502.59 167.50 L 509.65 165.62 L 516.71 164.38 L 523.76 163.75 L 530.82 163.12 L 537.88 161.88 L 544.94 161.25 L 552.00 160.00 L 573.18 158.75 L 580.24 156.88 L 587.29 155.62 L 594.35 154.38 L 608.47 153.75 L 615.53 150.00 L 622.59 149.38 L 629.65 148.12 L 643.76 146.88 L 664.94 146.25 L 672.00 145.62 L 679.06 145.00 L 700.24 144.38 L 707.29 143.75 L 714.35 143.12 L 721.41 141.25 L 728.47 140.62 L 735.53 140.00 L 742.59 138.75 L 756.71 136.88 L 770.82 136.25 L 777.88 135.62 L 806.12 133.75 L 820.24 133.12 L 827.29 132.50 L 834.35 131.88 L 841.41 130.62 L 848.47 129.38 L 855.53 128.75 L 862.59 127.50 L 869.65 126.25 L 876.71 124.38 L 883.76 123.12 L 890.82 122.50 L 897.88 121.88 L 904.94 121.25 L 912.00 120.00 L 912.00 350.00 Z" fill="url(#starFill)"/>
<path d="M 72.00 350.00 L 248.47 334.38 L 255.53 290.62 L 262.59 274.38 L 269.65 268.12 L 276.71 264.38 L 283.76 260.00 L 290.82 256.88 L 297.88 255.00 L 304.94 250.00 L 312.00 245.00 L 319.06 242.50 L 326.12 236.25 L 333.18 235.62 L 340.24 233.75 L 347.29 231.88 L 354.35 227.50 L 361.41 223.12 L 368.47 221.25 L 375.53 218.75 L 382.59 216.25 L 396.71 215.00 L 403.76 213.75 L 410.82 211.88 L 417.88 209.38 L 424.94 204.38 L 432.00 195.62 L 439.06 185.00 L 446.12 178.75 L 453.18 176.25 L 460.24 173.75 L 467.29 173.12 L 474.35 171.88 L 481.41 170.00 L 488.47 168.75 L 495.53 168.12 L 502.59 167.50 L 509.65 165.62 L 516.71 164.38 L 523.76 163.75 L 530.82 163.12 L 537.88 161.88 L 544.94 161.25 L 552.00 160.00 L 573.18 158.75 L 580.24 156.88 L 587.29 155.62 L 594.35 154.38 L 608.47 153.75 L 615.53 150.00 L 622.59 149.38 L 629.65 148.12 L 643.76 146.88 L 664.94 146.25 L 672.00 145.62 L 679.06 145.00 L 700.24 144.38 L 707.29 143.75 L 714.35 143.12 L 721.41 141.25 L 728.47 140.62 L 735.53 140.00 L 742.59 138.75 L 756.71 136.88 L 770.82 136.25 L 777.88 135.62 L 806.12 133.75 L 820.24 133.12 L 827.29 132.50 L 834.35 131.88 L 841.41 130.62 L 848.47 129.38 L 855.53 128.75 L 862.59 127.50 L 869.65 126.25 L 876.71 124.38 L 883.76 123.12 L 890.82 122.50 L 897.88 121.88 L 904.94 121.25 L 912.00 120.00" fill="none" stroke="#ffa657" stroke-width="3" stroke-linejoin="round" stroke-linecap="round"/>
<circle cx="912.00" cy="120.00" r="4.5" fill="#ffa657"/>
</svg>
